<svg version="1.1" id="Layer_1" xmlns="http://www.w3.org/2000/svg" xmlns:xlink="http://www.w3.org/1999/xlink" x="0px" y="0px"
	 width="100%" viewBox="0 0 512 512" enable-background="new 0 0 512 512" xml:space="preserve">
<path fill="#8F06B1" opacity="1.000000" stroke="none" 
	d="
M232.698624,1.249611 
	C248.687561,1.000000 264.375122,1.000000 280.531342,1.000000 
	C286.429535,2.983707 292.164795,2.241372 297.743652,2.683596 
	C305.290344,3.281808 312.617584,4.683435 319.928040,6.520877 
	C359.748138,16.529423 395.147064,34.928802 426.087585,61.961086 
	C469.710876,100.074059 497.587921,147.453247 509.834869,204.018967 
	C511.500061,211.710205 511.478668,219.646347 512.002747,227.490417 
	C512.112366,229.131332 511.673645,230.828979 512.750366,232.698639 
	C513.000000,248.687561 513.000000,264.375122 513.000000,280.531342 
	C511.016754,286.429047 511.742859,292.164124 511.318878,297.741974 
	C510.732300,305.458862 509.255371,312.940033 507.363831,320.400909 
	C497.317932,360.025024 478.967285,395.267883 452.050690,426.076508 
	C413.938904,469.699158 366.563263,497.575958 310.002045,509.834076 
	C302.301392,511.502991 294.359985,511.472656 286.509583,512.002563 
	C284.868683,512.113342 283.170898,511.673492 281.301300,512.750366 
	C265.312439,513.000000 249.624878,513.000000 233.468658,513.000000 
	C227.570724,511.016632 221.835388,511.742401 216.257355,511.319122 
	C208.537643,510.733398 201.054291,509.254120 193.591156,507.361725 
	C153.967621,497.314667 118.725235,478.963348 87.917854,452.045349 
	C44.297413,413.931946 16.418982,366.557037 4.166289,309.994659 
	C2.498953,302.297699 2.524009,294.357788 1.997318,286.509369 
	C1.887204,284.868500 2.326424,283.170868 1.249602,281.301331 
	C1.000000,265.312439 1.000000,249.624878 1.000000,233.468658 
	C2.983642,227.570496 2.241462,221.835251 2.683616,216.256454 
	C3.281727,208.709854 4.683398,201.382706 6.520799,194.072342 
	C16.529133,154.252609 34.928268,118.853951 61.960056,87.913551 
	C100.072350,44.290504 147.450897,16.413424 204.015808,4.165664 
	C211.708145,2.500077 219.645233,2.521675 227.490280,1.997258 
	C229.131241,1.887564 230.828934,2.326414 232.698624,1.249611 
z"/>
<path fill="#000000" opacity="1.000000" stroke="none" 
	d="
M232.531342,1.000000 
	C233.316406,3.195635 231.592255,2.861568 230.413651,2.963365 
	C197.172089,5.834404 165.988739,15.750679 136.622482,31.238342 
	C119.483711,40.277279 103.779968,51.536095 89.063850,64.277847 
	C68.176590,82.362808 50.819736,103.324165 36.725101,126.928864 
	C21.504986,152.418442 11.229481,179.886246 5.959765,209.173859 
	C4.652980,216.436600 3.105776,223.650955 2.907482,231.069305 
	C2.888299,231.786926 2.198219,232.486603 1.409786,233.097305 
	C1.000000,157.071701 1.034588,81.143333 0.895020,5.215280 
	C0.888239,1.526438 1.757594,0.902959 5.277040,0.908563 
	C80.872108,1.028925 156.467422,1.000000 232.531342,1.000000 
z"/>
<path fill="#000000" opacity="1.000000" stroke="none" 
	d="
M281.468658,513.000000 
	C280.683563,510.804321 282.407806,511.138519 283.586365,511.036682 
	C316.827942,508.165771 348.011261,498.249329 377.377472,482.761688 
	C394.516266,473.722748 410.220032,462.463928 424.936157,449.722168 
	C445.823425,431.637207 463.180267,410.675812 477.274933,387.071136 
	C492.495087,361.581604 502.770508,334.113770 508.040192,304.826141 
	C509.346985,297.563416 510.894196,290.349091 511.092560,282.930725 
	C511.111725,282.213104 511.801758,281.513397 512.590210,280.902710 
	C513.000000,356.928284 512.965393,432.856659 513.104980,508.784698 
	C513.111755,512.473389 512.242554,513.097107 508.722992,513.091492 
	C433.127930,512.971130 357.532593,513.000000 281.468658,513.000000 
z"/>
<path fill="#000000" opacity="1.000000" stroke="none" 
	d="
M1.000000,281.468658 
	C3.195667,280.683533 2.861564,282.407745 2.963357,283.586304 
	C5.834394,316.827911 15.750685,348.011230 31.238356,377.377472 
	C40.277294,394.516235 51.536079,410.220001 64.277847,424.936127 
	C82.362793,445.823395 103.324127,463.180267 126.928833,477.274902 
	C152.418442,492.494995 179.886230,502.770538 209.173843,508.040222 
	C216.436584,509.346985 223.650940,510.894287 231.069305,511.092529 
	C231.786926,511.111725 232.486618,511.801758 233.097321,512.590210 
	C157.071701,513.000000 81.143341,512.965393 5.215293,513.104980 
	C1.526478,513.111755 0.902957,512.242432 0.908561,508.722961 
	C1.028926,433.127899 1.000000,357.532593 1.000000,281.468658 
z"/>
<path fill="#000000" opacity="1.000000" stroke="none" 
	d="
M513.000000,232.531342 
	C510.804382,233.316406 511.138428,231.592255 511.036591,230.413651 
	C508.165619,197.172058 498.249298,165.988724 482.761658,136.622467 
	C473.722748,119.483673 462.463898,103.779953 449.722168,89.063843 
	C431.637238,68.176552 410.675812,50.819710 387.071106,36.725079 
	C361.581512,21.504976 334.113708,11.229471 304.826111,5.959746 
	C297.563354,4.652959 290.348999,3.105737 282.930634,2.907471 
	C282.213013,2.888291 281.513336,2.198221 280.902679,1.409788 
	C356.928284,1.000000 432.856659,1.034585 508.784698,0.895027 
	C512.473389,0.888248 513.097046,1.757479 513.091431,5.277012 
	C512.971069,80.872093 513.000000,156.467407 513.000000,232.531342 
z"/>
<path fill="#000000" opacity="1.000000" stroke="none" 
	d="
M18.986763,285.162170 
	C17.358959,278.928558 17.357649,272.897339 17.157557,267.047852 
	C16.066717,235.158401 20.674461,204.088608 31.919518,174.111786 
	C40.745663,150.583252 52.751919,128.883102 68.321266,109.091751 
	C87.758705,84.383392 111.011993,64.081085 138.257919,48.562492 
	C160.433319,35.931953 184.044617,26.799690 209.241501,21.925758 
	C226.804276,18.528515 244.462845,16.505690 262.340698,17.036024 
	C291.788818,17.909582 320.259155,23.604809 347.562042,34.866417 
	C371.777466,44.854507 394.055084,58.133816 413.714996,75.383827 
	C443.284241,101.328499 465.729279,132.432831 480.191193,169.251678 
	C487.237488,187.190948 492.159332,205.624222 494.846802,224.605530 
	C496.889709,239.034164 497.883606,253.654541 496.933441,268.233246 
	C493.750732,317.068420 478.385345,361.492584 448.773071,400.828979 
	C423.411743,434.518433 391.413696,459.780884 353.036377,476.874329 
	C333.851257,485.419464 313.760895,491.204559 292.837280,494.120056 
	C279.215027,496.018188 265.606750,497.383423 251.866852,496.976044 
	C222.243423,496.097687 193.605530,490.392853 166.167435,479.034729 
	C141.814941,468.953857 119.468971,455.491974 99.703506,438.080170 
	C74.421471,415.808716 54.230576,389.593750 39.923668,358.914520 
	C30.096642,337.841766 23.123863,315.988434 19.932501,292.934113 
	C19.595284,290.498108 18.713547,288.137939 18.986763,285.162170 
z"/>
<path fill="#8F06B1" opacity="1.000000" stroke="none" 
	d="
M199.043304,35.998459 
	C210.727188,33.012913 222.190674,31.308475 233.751450,29.873947 
	C245.043518,28.472767 256.309448,29.053310 267.575439,29.084784 
	C284.403839,29.131800 300.836700,32.391808 317.074158,36.563316 
	C331.049896,40.153774 344.436432,45.431602 357.352051,51.799957 
	C374.363892,60.188026 390.050171,70.589081 404.535736,82.921104 
	C428.999512,103.747871 448.506012,128.425720 462.540771,157.246246 
	C473.119568,178.969910 479.920746,201.881119 483.212189,225.972382 
	C485.408325,242.046539 485.732086,258.135681 484.730042,274.097839 
	C483.260223,297.511322 477.896423,320.281342 469.026886,342.177856 
	C460.389526,363.501251 448.930573,383.193390 434.380127,400.854340 
	C417.697906,421.102722 398.271332,438.460419 375.662567,452.126801 
	C354.907257,464.672821 332.864594,473.939056 309.236359,479.338745 
	C295.129822,482.562439 280.871399,484.672821 266.343231,485.056366 
	C243.639069,485.655792 221.247299,483.821381 199.224289,478.024689 
	C168.528076,469.945190 140.842575,455.969360 115.822823,436.439453 
	C105.040710,428.023193 95.418030,418.423126 86.189262,408.479462 
	C75.439056,396.896454 66.474182,383.864594 58.593281,370.134399 
	C47.612137,351.002960 39.549747,330.710205 34.634968,309.203400 
	C32.407703,299.456970 31.052031,289.573669 29.832167,279.633759 
	C28.546965,269.161438 29.175512,258.740082 29.062830,248.303879 
	C28.875372,230.942184 32.143116,213.988358 36.434093,197.273819 
	C40.263546,182.357071 45.944317,168.056183 52.957432,154.340347 
	C61.136219,138.344788 70.986435,123.470146 82.662766,109.743095 
	C103.472275,85.278801 128.147491,65.822235 156.909088,51.628246 
	C170.262314,45.038361 184.212387,39.865471 199.043304,35.998459 
z"/>
<path fill="#000000" opacity="1.000000" stroke="none" 
	d="
M193.944855,460.055206 
	C173.871902,454.229248 155.683197,445.073853 138.827286,433.730988 
	C124.093300,423.816071 110.697128,412.128693 98.808159,398.620880 
	C86.670036,384.829926 76.541519,369.922424 67.868965,353.807983 
	C59.175514,337.654724 53.200027,320.531281 49.187748,302.780945 
	C45.442524,286.212006 43.410732,269.284454 44.085667,252.263672 
	C45.233177,223.325180 51.175854,195.433395 63.445297,169.000153 
	C71.285866,152.108429 81.026016,136.386551 92.712402,121.999008 
	C104.832756,107.077209 119.002556,94.132866 134.775543,83.082703 
	C160.896713,64.782860 189.706573,52.663960 221.106705,47.197628 
	C235.411285,44.707397 249.970642,43.192867 264.530731,44.082359 
	C292.895538,45.815182 320.351562,51.599213 346.137329,64.031708 
	C364.994720,73.123726 382.267456,84.427475 398.080627,98.327881 
	C419.192841,116.886345 435.555817,138.883987 448.089142,163.747925 
	C457.707489,182.829102 464.020874,203.103745 467.096222,224.369034 
	C468.896179,236.815521 470.456696,249.280930 469.921631,261.829956 
	C468.687988,290.764282 462.795685,318.654083 450.506683,345.081543 
	C442.654114,361.968567 433.011139,377.773193 421.207855,392.056671 
	C405.361969,411.232117 386.575073,427.200439 365.132416,439.997345 
	C342.655884,453.411224 318.476837,462.287415 292.797882,466.808655 
	C279.155365,469.210693 265.270081,470.671631 251.373322,469.921875 
	C232.012543,468.877350 212.835739,466.399414 193.944855,460.055206 
z"/>
<path fill="#8F06B0" opacity="1.000000" stroke="none" 
	d="
M186.000000,337.001404 
	C161.004990,337.001312 136.508743,336.865814 112.015724,337.086700 
	C105.009499,337.149902 100.854309,331.471710 103.009254,326.180359 
	C104.213791,323.222687 106.764908,322.279114 109.380310,321.271973 
	C113.064064,319.853485 116.225845,310.114410 114.085922,306.847473 
	C110.109871,300.777374 113.136780,294.064545 120.386551,294.194641 
	C125.649315,294.289124 126.123535,292.298401 126.092628,287.898315 
	C125.904190,261.071777 125.983734,234.243210 126.021889,207.415375 
	C126.025558,204.835373 125.842316,202.894424 123.079315,201.317047 
	C119.925774,199.516708 119.298698,195.951874 120.278717,192.505264 
	C121.406662,188.538406 125.024345,187.635422 128.412125,187.111115 
	C131.342407,186.657639 134.408310,186.835083 137.392365,187.045044 
	C140.257950,187.246643 140.976791,186.158112 141.083618,183.369293 
	C141.329742,176.944229 140.060181,170.477356 141.859482,164.077209 
	C143.070816,159.768433 145.669022,157.974060 150.033585,157.976028 
	C221.352386,158.008270 292.671326,158.050995 363.989777,157.890015 
	C369.137329,157.878387 372.735779,161.837234 372.959808,167.894165 
	C373.150604,173.052780 373.144104,178.229355 372.947357,183.387421 
	C372.838562,186.239594 373.809692,187.075012 376.627747,187.076736 
	C380.734497,187.079239 384.923706,186.265976 388.949921,187.990128 
	C394.893036,190.535156 396.195862,197.734039 390.879730,201.330139 
	C388.285858,203.084763 387.977844,204.881165 387.980988,207.444809 
	C388.014343,234.605896 388.048615,261.767242 387.943817,288.927979 
	C387.930298,292.432251 388.268402,294.228363 392.642548,294.140228 
	C400.831726,293.975189 404.027740,300.295166 399.602112,307.275269 
	C398.611115,308.838287 398.381409,310.195068 399.150757,311.751038 
	C401.238708,315.973663 401.079346,321.619934 407.838013,322.679382 
	C410.382812,323.078278 412.006470,326.624207 411.527313,329.905182 
	C410.932129,333.980591 408.326965,336.196686 404.446533,336.925812 
	C402.996155,337.198364 401.455505,336.999969 399.955994,337.000000 
	C328.803986,337.001587 257.652008,337.001404 186.000000,337.001404 
z"/>
<path fill="#8F06B1" opacity="1.000000" stroke="none" 
	d="
M247.749146,413.254395 
	C250.892075,417.280273 253.780624,421.047516 256.970459,425.207672 
	C264.022186,416.100037 271.105988,407.160095 277.947113,398.038147 
	C282.148621,392.435791 285.730164,391.224762 291.878693,394.431915 
	C301.184357,399.285950 310.454041,404.216309 319.615356,409.335449 
	C322.511322,410.953613 323.349121,410.261292 324.043060,407.281464 
	C326.558746,396.479187 329.391602,385.750732 331.899475,374.946777 
	C332.960205,370.377106 335.712921,368.838867 340.100098,368.975952 
	C353.627747,369.398865 367.105713,370.418396 380.553650,371.928986 
	C383.023834,372.206451 385.601379,371.727539 388.025970,372.167450 
	C392.353882,372.952606 395.672913,377.414703 394.937500,380.906219 
	C393.953217,385.579498 389.121521,388.507874 384.095612,387.990112 
	C373.125000,386.859985 362.104309,386.188080 351.153503,384.906616 
	C346.224396,384.329773 344.840881,386.434357 343.906708,390.773193 
	C341.571869,401.617218 338.730164,412.352417 336.072968,423.126617 
	C334.254700,430.498993 330.409637,432.517242 323.569397,429.100677 
	C314.340668,424.491150 305.349030,419.409485 296.191620,414.653717 
	C288.454193,410.635437 288.366913,410.676270 283.037201,417.468018 
	C276.642090,425.617340 270.309021,433.815857 264.004059,442.035217 
	C260.213196,446.977142 253.784821,446.925140 249.972107,441.954590 
	C242.588165,432.328308 235.017792,422.842712 227.769165,413.116608 
	C226.000107,410.742950 224.667770,410.889679 222.458084,412.098328 
	C212.249283,417.682343 201.910248,423.031097 191.757095,428.712921 
	C184.633759,432.699219 178.991623,430.043823 177.371185,422.137299 
	C175.011597,410.624176 171.723282,399.303833 169.180511,387.823853 
	C168.645111,385.406677 167.833603,384.823029 165.705154,384.993469 
	C154.042740,385.927490 142.362976,386.680725 130.722733,387.834625 
	C126.996696,388.204010 123.581207,387.787018 121.216248,385.117218 
	C119.457359,383.131622 117.829857,380.169281 119.397163,377.351959 
	C121.309502,373.914490 124.374886,372.160095 128.599426,371.925568 
	C143.092499,371.121063 157.558792,369.821960 172.053955,369.071930 
	C179.812195,368.670502 181.194016,370.053192 182.963547,377.382294 
	C185.300461,387.061371 188.031860,396.668549 189.811096,406.449005 
	C190.687439,411.266235 192.471527,410.524475 195.428162,408.912689 
	C204.359436,404.043976 213.253632,399.104126 222.254242,394.366730 
	C227.943146,391.372375 232.249252,392.631897 235.952988,397.710419 
	C239.714462,402.868103 243.640686,407.905640 247.749146,413.254395 
z"/>
<path fill="#8F06B1" opacity="1.000000" stroke="none" 
	d="
M78.696564,235.669983 
	C70.097397,233.824585 70.086906,230.322678 71.062958,224.456436 
	C75.792053,196.033325 86.976074,170.281021 103.626457,146.803482 
	C109.259949,138.860092 115.354988,131.264267 122.211525,124.450241 
	C147.551697,99.267235 177.500732,81.917564 212.307175,73.414902 
	C222.329742,70.966553 232.550171,69.561302 242.913086,68.788475 
	C249.868744,68.269737 256.806091,67.815155 263.731659,68.082123 
	C275.056671,68.518677 286.310944,69.951385 297.417145,72.254211 
	C302.606720,73.330254 305.729095,77.655998 304.697968,81.651131 
	C303.357147,86.846123 299.285248,89.291313 293.649323,87.783325 
	C276.787994,83.271797 259.498688,82.982292 242.411865,84.255936 
	C220.075058,85.920898 198.566330,91.949783 178.528336,102.240349 
	C161.441238,111.015488 145.940552,122.173286 132.576675,136.007278 
	C111.513199,157.811737 97.408020,183.676926 89.185310,212.772964 
	C87.766121,217.794754 87.043594,223.013229 85.994385,228.139862 
	C85.197563,232.033249 83.091774,234.687363 78.696564,235.669983 
z"/>
<path fill="#8F06B1" opacity="1.000000" stroke="none" 
	d="
M427.500122,175.519699 
	C434.509613,190.249557 439.377594,205.289886 442.451447,220.912766 
	C442.862274,223.000824 443.226135,225.127548 443.297180,227.246933 
	C443.450287,231.812988 441.236267,234.756210 436.703369,235.640121 
	C433.085266,236.345657 429.117645,233.077362 428.048645,228.550919 
	C426.699738,222.838974 425.639893,217.074371 424.082489,211.393143 
	C417.639374,187.889389 406.808167,166.751266 391.471741,147.772736 
	C387.091705,142.352570 381.589447,138.042801 377.596710,132.272812 
	C375.137054,128.718338 374.487305,125.557579 377.336456,122.223488 
	C380.338654,118.710266 383.779999,118.319252 387.784821,120.910210 
	C393.212097,124.421455 396.596588,129.873856 400.747253,134.505585 
	C411.082001,146.038147 419.327576,159.113571 426.414612,172.892426 
	C426.788330,173.619019 427.015137,174.421204 427.500122,175.519699 
z"/>
<path fill="#8F06B1" opacity="1.000000" stroke="none" 
	d="
M364.991974,105.206085 
	C364.182526,113.013756 359.400360,116.005501 353.156219,112.528564 
	C344.167938,107.523613 335.204742,102.497871 325.981781,97.923164 
	C321.578064,95.738861 319.633087,90.607208 321.337524,87.238197 
	C323.441681,83.079147 328.423431,81.738197 333.326782,84.137772 
	C342.723145,88.736115 352.046326,93.469009 360.973083,98.956337 
	C363.273102,100.370178 364.489532,102.275200 364.991974,105.206085 
z"/>
<path fill="#000000" opacity="1.000000" stroke="none" 
	d="
M141.001541,266.000000 
	C141.001617,246.339340 141.085449,227.177979 140.928421,208.018600 
	C140.898361,204.353409 141.521500,202.891708 145.720947,202.899704 
	C219.864120,203.040726 294.007690,203.034332 368.150940,202.911819 
	C372.120789,202.905273 373.110992,203.996140 373.086914,207.890396 
	C372.919098,235.047516 372.924316,262.206604 373.084351,289.363800 
	C373.106232,293.078339 372.176819,294.222839 368.393555,294.089203 
	C360.073212,293.795349 351.730591,293.834839 343.406860,294.075928 
	C339.943420,294.176208 338.889191,293.224121 338.919922,289.664825 
	C339.091034,269.839172 339.004791,250.011276 338.999786,230.184158 
	C338.998077,223.340378 336.387451,220.010086 331.046600,220.001694 
	C326.347687,219.994308 323.072449,224.045197 323.026550,230.355591 
	C322.935638,242.851028 322.999023,255.347565 322.998444,267.843658 
	C322.998077,275.341309 322.824341,282.844757 323.074921,290.333984 
	C323.188141,293.718750 321.689331,294.090393 318.923218,294.044464 
	C310.927948,293.911774 302.922272,293.803955 294.934479,294.082397 
	C291.106079,294.215851 289.851990,293.249298 289.900635,289.191559 
	C290.128326,270.200256 289.994232,251.204681 290.008545,232.210632 
	C290.010925,229.038757 289.791046,225.894485 287.753296,223.308868 
	C285.655853,220.647415 282.870239,219.091980 279.451782,220.308411 
	C275.619141,221.672226 273.943634,224.574585 273.961456,228.740662 
	C274.045563,248.400803 273.779388,268.065552 274.141632,287.719391 
	C274.241058,293.115509 272.582947,294.378540 267.534271,294.108490 
	C259.725739,293.690765 251.873322,293.832947 244.049881,294.074097 
	C240.659698,294.178619 239.919067,292.966766 239.938828,289.807892 
	C240.063843,269.814941 240.006454,249.820816 239.998672,229.827072 
	C239.996323,223.784698 237.705032,220.505096 233.190643,220.012573 
	C228.998230,219.555176 226.296570,222.197693 224.569977,227.709152 
	C223.991882,229.554504 224.027496,231.296539 224.023621,233.081970 
	C223.982834,251.909317 223.916779,270.737457 224.072510,289.563599 
	C224.100693,292.972198 223.304977,294.207367 219.693787,294.081635 
	C211.872391,293.809387 204.025574,293.770477 196.207932,294.092010 
	C192.152405,294.258850 190.838318,293.259827 190.893936,288.964050 
	C191.141998,269.806610 190.966537,250.643997 191.035370,231.483582 
	C191.046997,228.247604 190.555313,225.040726 188.617584,222.637985 
	C186.592590,220.126984 183.473312,219.017441 180.156189,220.402969 
	C176.597961,221.889191 174.946503,224.595856 174.965836,228.556427 
	C175.045532,244.884247 174.998947,261.212708 174.998352,277.540924 
	C174.998184,281.872894 174.887558,286.208649 175.037354,290.535370 
	C175.123672,293.028229 174.460464,294.092987 171.722565,294.049500 
	C162.561096,293.903839 153.394348,293.901031 144.232986,294.050110 
	C141.443283,294.095459 140.931702,292.923553 140.963974,290.491821 
	C141.070114,282.495789 141.002457,274.497467 141.001541,266.000000 
z"/>
<path fill="#000000" opacity="1.000000" stroke="none" 
	d="
M365.999390,320.998474 
	C286.578796,320.998474 207.658020,320.998474 128.663208,320.998474 
	C128.807236,319.924744 128.825836,319.087921 129.039062,318.303986 
	C131.297928,309.999390 131.306458,310.001587 140.007812,310.001587 
	C218.605057,310.001526 297.202301,310.001404 375.799561,310.001862 
	C381.386383,310.001892 385.226166,314.093994 385.251526,319.585724 
	C385.262299,321.916534 383.764496,320.927246 382.983368,320.941803 
	C377.490204,321.043976 371.994232,320.997467 365.999390,320.998474 
z"/>
<path fill="#000000" opacity="1.000000" stroke="none" 
	d="
M199.000214,173.677887 
	C250.144073,173.678085 300.787933,173.667542 351.431702,173.721756 
	C353.268524,173.723724 356.226013,172.680145 356.685059,175.076782 
	C357.387787,178.745285 357.616394,182.693588 356.458221,186.380371 
	C356.102570,187.512589 354.347046,186.977325 353.232544,186.977707 
	C289.094788,186.999466 224.956985,186.974808 160.819351,187.064331 
	C157.668686,187.068726 156.856354,186.086197 156.946747,183.081909 
	C157.280716,171.984009 155.452454,173.820267 166.015121,173.704285 
	C176.842270,173.585403 187.671753,173.677902 199.000214,173.677887 
z"/>
</svg>